Coordinates
version=1
nRows=13
nColumns=34
inDegrees=yes

Units are S.I. units (second, meters, Newtons, ...)
If the header above contains a line with 'inDegrees', this indicates whether rotational values are in degrees (yes) or radians (no).

endheader
time	pelvis_tilt	pelvis_list	pelvis_rotation	pelvis_tx	pelvis_ty	pelvis_tz	hip_flexion_r	hip_adduction_r	hip_rotation_r	knee_angle_r	ankle_angle_r	subtalar_angle_r	mtp_angle_r	hip_flexion_l	hip_adduction_l	hip_rotation_l	knee_angle_l	ankle_angle_l	subtalar_angle_l	mtp_angle_l	lumbar_extension	lumbar_bending	lumbar_rotation	arm_flex_r	arm_add_r	arm_rot_r	elbow_flex_r	pro_sup_r	arm_flex_l	arm_add_l	arm_rot_l	elbow_flex_l	pro_sup_l
      5.86666670	      6.95089310	    -13.44391683	      4.24820121	      0.43839030	      0.92211075	     -0.18923697	     45.66674671	      4.89674806	    -14.35115618	     18.62961900	     -0.53535504	      5.47915447	      0.00000000	     -2.94051123	     -8.27409814	     -6.09102695	      8.14658528	     11.71668531	      2.19650358	      0.00000000	    -15.26685686	      8.27055070	     -2.12544403	     72.31897781	     13.49093449	     68.29603249	    121.54084510	     99.02465868	     55.71279279	      6.18425277	     52.03727946	    114.55399052	     79.41899057
      5.88333330	      6.88200874	    -13.50042124	      4.13089535	      0.43786334	      0.91961169	     -0.18817070	     45.71363349	      5.07044030	    -14.19530149	     18.64380114	     -0.44619317	      5.52118946	      0.00000000	     -3.02750832	     -8.30951083	     -6.12407946	      7.95196796	     11.85052980	      2.03869892	      0.00000000	    -15.11848847	      8.37938724	     -2.23097583	     72.32340082	     13.55593414	     68.32329859	    121.58485113	     99.00697187	     55.73085055	      6.59797669	     51.97443646	    114.88656495	     79.40851202
      5.90000000	      6.85174693	    -13.44538309	      4.04011164	      0.43860331	      0.92086905	     -0.18851453	     45.65021771	      5.07291719	    -14.19276148	     18.67125193	     -0.42366477	      5.49876592	      0.00000000	     -3.05468064	     -8.22148436	     -6.09248136	      7.96101781	     11.84492153	      2.04370838	      0.00000000	    -15.07107839	      8.48425221	     -2.21007534	     72.31261699	     13.56716398	     68.33277229	    121.60860213	     99.00381693	     55.72529101	      6.59431269	     51.94555628	    114.91040582	     79.40600629
      5.91666670	      6.82563894	    -13.38096838	      3.94534478	      0.43889833	      0.92138721	     -0.18905170	     45.57057417	      5.07978957	    -14.18737776	     18.70591674	     -0.39664689	      5.46789208	      0.00000000	     -3.11867884	     -8.10747850	     -6.08773904	      7.94976637	     11.84498690	      2.02957342	      0.00000000	    -14.99111372	      8.61581545	     -2.22885946	     72.27407483	     13.59738134	     68.35997511	    121.64749657	     99.00165665	     55.71929729	      6.63182574	     51.92625281	    114.92547989	     79.40384210
      5.93333330	      6.81113287	    -13.37056859	      3.71803475	      0.43855694	      0.92078419	     -0.18811213	     45.53144395	      5.27367391	    -13.91874404	     18.62831457	     -0.25053570	      5.34060439	      0.00000000	     -3.29754604	     -8.02698649	     -6.05955549	      7.71808342	     11.96822791	      1.75734642	      0.00000000	    -14.93584126	      8.75982709	     -2.03449293	     71.88899207	     13.80947080	     68.67167103	    121.89812999	     98.97073786	     55.37791019	      6.42856983	     51.39555327	    114.82017513	     79.36158529
      5.95000000	      6.81453367	    -13.29788791	      3.64626369	      0.43899054	      0.92133056	     -0.18727064	     45.49394694	      5.27702625	    -13.93339149	     18.59386612	     -0.26106929	      5.31967244	      0.00000000	     -3.31945523	     -7.94453655	     -6.09112335	      7.78120039	     11.95699575	      1.73002961	      0.00000000	    -14.89738909	      8.80578617	     -2.09978073	     71.89510326	     13.78882188	     68.68186750	    121.89764748	     98.96802820	     55.35980427	      6.50498204	     51.38960674	    114.84208769	     79.36009469
      5.96666670	      6.81706412	    -13.24053658	      3.52223928	      0.43973039	      0.91997005	     -0.18704106	     45.51176632	      5.36931591	    -13.95631488	     18.56704150	     -0.30750353	      5.23997712	      0.00000000	     -3.32620518	     -7.89871947	     -6.39622829	      7.88823923	     12.05907061	      1.40085359	      0.00000000	    -14.91876242	      8.67786782	     -2.16280884	     71.91466188	     13.80361005	     68.78342230	    121.87199043	     98.95173556	     55.21666236	      6.74856800	     51.31139029	    114.93460622	     79.34981433
      5.98333330	      6.77598619	    -13.24812220	      3.22544851	      0.43981144	      0.91864941	     -0.18700910	     45.83494953	      5.52323662	    -13.62620090	     18.94908786	     -0.21368728	      5.23529487	      0.00000000	     -3.30991349	     -7.84539424	     -6.56728690	      7.97172875	     12.01113864	      0.99420256	      0.00000000	    -14.94544118	      8.90934396	     -1.83322537	     72.08423503	     13.88469993	     68.89717614	    121.91697316	     98.91121173	     55.20053898	      6.74800532	     50.97803386	    114.98571010	     79.32385220
      6.00000000	      6.80592083	    -13.25093234	      3.15410659	      0.43867985	      0.92045545	     -0.18770108	     45.91256214	      5.51286207	    -13.57157544	     18.96860968	     -0.23851032	      5.24458451	      0.00000000	     -3.36368441	     -7.80076753	     -6.51077443	      7.92511450	     11.99604841	      1.01433627	      0.00000000	    -14.93076059	      9.00529610	     -1.93995122	     72.07679426	     13.81705303	     68.91660652	    121.91439825	     98.90794256	     55.22106818	      6.83434480	     50.97187234	    115.00799323	     79.32210869
      6.01666670	      6.82112896	    -13.26673760	      3.27505231	      0.43936093	      0.92066527	     -0.18749074	     45.99850215	      5.38704534	    -13.46611575	     19.13068760	     -0.28469758	      5.11588070	      0.00000000	     -3.43754973	     -7.78461001	     -6.24632570	      7.68218307	     11.84983847	      1.05482782	      0.00000000	    -14.90995661	      9.08227674	     -1.91895588	     72.11319946	     13.62263795	     69.02393128	    121.86138020	     98.88469734	     55.20131251	      7.01867057	     50.92982443	    115.15622822	     79.31386375
      6.03333330	      6.82920535	    -13.25363256	      3.16713534	      0.43880036	      0.92023963	     -0.18763240	     46.03737658	      5.38241638	    -13.48892494	     19.14539606	     -0.30675687	      5.09615678	      0.00000000	     -3.45690717	     -7.74560493	     -6.21422400	      7.68244172	     11.85349712	      1.05884906	      0.00000000	    -14.94410506	      9.13974495	     -1.95420313	     72.10618731	     13.61976260	     69.02686281	    121.87221725	     98.88196061	     55.21666050	      7.03363139	     50.91919561	    115.13211643	     79.31180439
      6.05000000	      6.85462141	    -13.22224842	      3.18277815	      0.43903264	      0.92086198	     -0.18742114	     46.09509913	      5.40943296	    -13.49587858	     19.11994016	     -0.31203700	      5.09596113	      0.00000000	     -3.47850275	     -7.73073889	     -6.20963815	      7.69135559	     11.85519222	      1.05890693	      0.00000000	    -14.94984473	      9.15226635	     -1.96277129	     72.10564656	     13.62211160	     69.02707501	    121.87464516	     98.88146949	     55.21753302	      7.04224240	     50.92055999	    115.12848509	     79.31152530
      6.06666670	      6.88424727	    -13.17404761	      3.06520054	      0.43971875	      0.91991363	     -0.18716889	     46.14681073	      5.45565550	    -13.48989466	     19.17246660	     -0.56288252	      5.11502438	      0.00000000	     -3.45663794	     -7.66737480	     -6.00946353	      7.84688137	     11.94429765	      1.02872228	      0.00000000	    -15.12875427	      9.16532004	     -1.88002056	     72.05463909	     13.81853547	     69.02118606	    121.93823719	     98.86420038	     55.19699912	      7.13065741	     50.92812578	    115.05923885	     79.30234475
